PathFileType	4	(X/Y/Z)	C:/Users/beibeiliu/ov580/test_trc/User1\sequence.26_training_dense_right.trc
DataRate	CameraRate	NumFrames	NumMarkers	Units	OrigDataRate	OrigDataStartFrame	OrigNumFrames
120	120	16	19	mm	120	289	330
Frame#	Time	ThumbCMC			ThumbMCP			ThumbIP			ThumbTip			IndexMCP			IndexPIP			IndexTip			MiddleMCP			MiddlePIP			MiddleTip			RingMCP			RingPIP			RingTip			PinkyMCP			PinkyPIP			PinkyTip			BackHand1			BackHand2			BackHand3	
		X0	Y0	Z0	X1	Y1	Z1	X2	Y2	Z2	X3	Y3	Z3	X4	Y4	Z4	X5	Y5	Z5	X6	Y6	Z6	X7	Y7	Z7	X8	Y8	Z8	X9	Y9	Z9	X10	Y10	Z10	X11	Y11	Z11	X12	Y12	Z12	X13	Y13	Z13	X14	Y14	Z14	X15	Y15	Z15	X16	Y16	Z16	X17	Y17	Z17	X18	Y18	Z18	
288	2.4	108.615	-23.3008	61.6151	95.8748	-41.5083	22.7663	104.016	-54.1184	-4.43285	123.479	-71.9287	-19.9507	144.72	0.251571	-12.839	152.269	2.09327	-36.74	162.895	1.75642	-63.746	168.234	-8.15526	-21.2235	173.477	-8.40771	-48.0173	175.742	-5.7974	-76.1621	167.189	-41.0858	-18.0141	145.712	-65.1411	-30.8366	129.294	-68.3933	0.70314	167.502	-72.8216	0.0280626	141.774	-83.6788	4.19738	129.978	-61.3522	31.4112	178.696	-28.2183	43.2848	175.898	-27.2929	73.5351	151.175	-9.08657	58.6478	
289	2.40833	104.176	-27.862	62.6969	90.8285	-45.0284	26.8297	97.0417	-55.2586	-1.80725	120.24	-67.4089	-15.756	131.07	4.96058	-8.62073	141.133	6.47322	-34.1381	147.319	10.0559	-57.401	155.266	-0.919463	-15.6966	163.008	0.418669	-41.677	168.395	4.11302	-72.6146	161.718	-36.3134	-20.4659	143.874	-62.6322	-30.8549	132.53	-70.8994	-0.0670115	167.318	-67.4697	-1.77045	141.28	-77.028	3.2572	129.037	-67.9426	28.1551	174.009	-27.0473	44.1419	173.457	-28.6995	77.7676	141.849	-5.59298	60.3532	
290	2.41667	98.7274	-30.9427	64.9882	89.1541	-46.8093	26.1362	99.5872	-53.1502	-2.37084	121.229	-64.3049	-19.0862	123.014	7.69413	-8.60729	133.527	11.5502	-33.6614	140.503	13.2233	-54.0019	150.125	2.19326	-15.6339	154.013	8.38746	-41.8566	159.294	13.0575	-71.9392	156.638	-30.522	-17.4082	141.186	-58.5012	-30.3042	128.387	-68.4294	-0.950193	169.796	-60.5461	0.637302	140.934	-74.3574	1.21239	128.26	-70.1024	31.1037	169.344	-23.2038	43.6399	168.717	-26.339	77.5189	135.662	-6.50369	61.1495	
291	2.425	98.6827	-35.0067	64.6158	84.865	-48.8141	27.5252	97.5522	-52.9643	1.98023	118.289	-63.0607	-19.6395	117.767	5.28415	-4.73851	124.992	10.8425	-28.5969	131.714	17.8762	-54.8413	144.821	1.45163	-10.2681	146.583	10.1515	-38.6774	150.518	17.4586	-66.7315	152.82	-29.358	-19.7517	140.08	-54.1093	-32.0839	126.259	-67.8345	-1.45109	167.362	-56.6519	0.0881981	142.917	-76.5161	-0.822819	128.333	-73.1852	28.9551	163.564	-19.6065	44.9002	161.774	-25.63	76.3842	132.199	-8.98666	66.7036	
292	2.43333	94.6238	-38.9974	68.3223	81.7471	-52.1525	32.2674	94.4553	-53.68	-1.14119	115.929	-61.3975	-19.6484	112.295	3.85001	-0.284192	118.811	12.2418	-25.3295	125.159	18.6994	-50.6641	138.995	3.84337	-10.4081	141.098	11.283	-34.1041	149.065	19.2531	-65.3907	152.693	-27.3122	-16.9045	135.982	-55.3405	-29.1045	129.652	-69.8916	-3.84727	164.894	-49.9945	0.955577	142.731	-74.8862	-1.7574	126.997	-72.4386	26.6752	160.578	-17.403	43.8685	162.032	-25.1632	81.913	126.555	-9.56906	66.5891	
293	2.44167	91.3693	-39.601	66.5798	85.6546	-52.6413	33.2553	94.1357	-55.2611	4.93243	112.185	-62.3202	-19.2976	110.668	2.99214	1.13757	116.114	13.1397	-26.5184	121.537	18.6411	-47.0471	137.245	3.68035	-6.54436	137.116	15.071	-36.2752	142.977	22.2093	-61.6742	148.158	-25.9598	-14.0387	136.597	-54.8635	-28.4315	126.896	-69.0928	-1.13457	160.272	-49.7119	-0.598349	143.119	-71.6124	-2.34264	129.102	-74.1802	23.7029	154.435	-19.2801	49.1011	159.101	-25.22	84.8999	120.772	-11.7805	70.0798	
294	2.45	92.235	-42.3509	69.1314	83.0185	-54.4589	32.1397	92.9524	-56.9488	5.94857	114.157	-61.4656	-17.379	111.451	2.14284	1.19115	115.009	14.2096	-25.6506	120.637	19.549	-46.2989	137.454	3.77469	-5.76555	140.14	13.0678	-35.6654	145.103	22.2994	-61.8225	147.16	-23.9731	-10.6228	136.467	-54.525	-27.9163	125.393	-69.3402	-0.396192	165.428	-49.9773	1.83788	145.779	-75.089	-2.96517	127.146	-74.005	24.6059	155.936	-17.2292	48.8842	154.777	-26.376	86.2271	123.049	-11.256	70.8613	
295	2.45833	91.8969	-43.8233	71.3835	86.5689	-54.2173	31.5768	96.1232	-56.135	3.24054	117.437	-61.2637	-17.4646	111.468	2.23657	1.87852	118.357	13.038	-25.0077	125.75	20.6107	-47.5941	137.045	2.51383	-4.04274	140.89	11.6098	-30.7741	147.1	20.1521	-59.631	150.752	-26.4309	-12.2673	140.193	-53.6317	-27.9129	131.984	-71.695	-0.382819	163.871	-52.5493	-0.341423	146.4	-74.8753	-1.44546	130.951	-74.6924	23.4788	156.229	-21.0718	50.7964	157.915	-26.3837	82.9765	121.881	-11.4219	68.4914	
296	2.46667	97.9033	-43.0116	68.1182	92.8055	-54.9962	30.359	101.042	-56.8378	-1.69537	123.376	-62.721	-18.9961	116.514	1.00725	0.632138	124.291	9.58537	-22.2339	132.804	18.4968	-48.0822	145.561	1.59349	-6.36267	146.946	10.766	-32.2735	154.999	19.7744	-59.9635	155.138	-28.5907	-14.1263	141.526	-56.7787	-27.0205	134.27	-71.3474	-1.13811	168.802	-54.0016	0.27727	153.886	-77.3999	-1.87786	135.114	-78.4551	30.0656	160.26	-23.3002	51.975	163.407	-29.1809	82.8719	125.596	-12.2432	69.7266	
297	2.475	101.155	-44.4957	68.4701	94.7138	-55.3574	27.1773	104.963	-59.6258	-0.542154	129.455	-66.8046	-19.1877	126.737	0.809658	-2.72797	130.329	7.1848	-22.686	140.644	18.036	-49.3738	153.378	0.454572	-8.01162	154.41	10.9757	-34.7763	166.269	15.0092	-57.808	163.32	-30.6162	-10.9509	149.595	-58.0361	-27.8323	140.855	-74.5877	1.9039	175.085	-55.4291	4.41619	156.996	-79.4429	-0.745773	140.417	-79.5995	25.9444	167.199	-24.4806	52.009	161.61	-29.5365	84.3503	130.121	-13.1565	69.3829	
298	2.48333	102.435	-43.8415	67.2167	99.2002	-56.5995	26.9716	112.922	-61.3037	0.351239	133.579	-69.8764	-19.1027	132.736	-1.90756	-2.17821	137.814	9.54472	-27.9671	148.974	13.4659	-48.4069	158.801	-2.89555	-6.4098	163.229	7.26481	-33.4603	171.674	14.6563	-59.291	168.848	-33.9509	-11.824	159.138	-59.1076	-26.8328	144.013	-74.4825	3.57293	181.615	-60.7333	3.94855	160.198	-78.3995	-0.634705	143.006	-78.1971	25.8455	172.216	-26.2924	50.0031	166.78	-32.2527	87.8602	138.104	-17.3343	66.2259	
299	2.49167	108.775	-44.5072	65.4084	103.291	-56.7275	22.2346	115.945	-64.1827	-0.134825	141.553	-73.1466	-18.2471	138.292	-3.14028	-1.67816	146.323	5.07408	-24.2519	158.706	11.6963	-47.3441	167.253	-3.82021	-8.78073	174.009	2.37247	-30.8591	182.899	10.0461	-56.3886	176.129	-35.2755	-12.1046	163.661	-62.1276	-26.4211	150.207	-75.2807	1.79512	186.263	-60.713	8.50477	163.04	-81.8054	2.12041	147.078	-78.5868	30.5584	175.501	-27.1774	54.2047	173.967	-33.7944	85.0678	139.856	-16.8047	66.6475	
300	2.5	113.697	-44.3163	65.118	105.965	-59.3283	23.7537	121.78	-64.3801	-4.95995	143.272	-74.6897	-16.1713	146.293	-2.97516	-3.28164	154.119	3.97924	-25.1575	166.159	11.6424	-48.9001	172.266	-5.80069	-6.67637	176.979	1.40571	-29.5336	193.16	6.30313	-56.9163	183.351	-37.129	-8.8898	170.721	-62.7929	-27.4198	153.731	-75.6884	-2.07632	190.531	-66.3976	5.27778	167.034	-87.412	4.36253	149.954	-81.8948	28.4203	179.09	-27.7779	50.915	175.07	-33.6144	85.2621	144.239	-16.8105	65.9835	
301	2.50833	111.742	-43.6453	64.0924	112.123	-58.7132	23.7886	123.884	-66.1441	-3.85718	151.04	-74.8624	-16.2146	150.715	-3.91327	-3.50961	159.782	2.58134	-26.5635	174.523	8.7463	-48.7078	180.159	-7.78183	-7.89564	185.559	0.0407984	-31.7432	199.591	5.23744	-58.6516	186.03	-40.7261	-10.9107	173.681	-64.2404	-26.7023	154.782	-76.7542	1.55545	190.977	-66.7023	5.95658	172.721	-86.8363	3.95426	151.633	-81.8617	34.3471	183.409	-31.771	53.7597	178.686	-35.566	89.4011	152.151	-18.6977	62.9128	
302	2.51667	118.639	-44.307	62.1315	115.892	-59.0444	24.2807	129.286	-65.8322	-2.85186	151.091	-76.4447	-13.8008	152.928	-5.68338	-3.04952	166.698	0.0615011	-27.46	179.341	7.47144	-50.1479	180.585	-10.6008	-5.21531	191.387	-2.69413	-32.3188	203.983	4.49882	-57.7979	192.723	-43.186	-10.6334	178.501	-69.7567	-23.6364	161.737	-80.4437	3.91669	196.116	-68.2331	7.569	174.697	-89.4845	6.1745	156.424	-82.5786	32.2833	184.554	-29.6262	51.8586	178.434	-35.997	89.9473	153.392	-18.0138	63.0774	
303	2.525	117.553	-43.8303	61.3609	118.182	-59.0108	21.5431	131.632	-67.3987	-5.90439	152.753	-79.8331	-17.6333	158.059	-7.60104	-2.73449	166.826	1.15972	-27.6187	179.96	5.37257	-46.1716	187.116	-10.6481	-7.49465	192.141	-0.898916	-33.9455	205.174	3.13244	-56.5101	194.009	-43.0037	-5.67453	182.113	-72.2973	-23.1361	162.327	-81.4926	4.54169	200.688	-72.1815	7.79964	178.617	-89.2427	5.99699	155.279	-79.063	31.4459	186.091	-30.6892	50.4063	179.89	-35.8569	86.9741	151.819	-18.2579	63.5871	
